<svg width="22" height="26" viewBox="0 0 22 26" fill="none" xmlns="http://www.w3.org/2000/svg">
<path fill-rule="evenodd" clip-rule="evenodd" d="M14.6002 1.75174L14.3285 2.17672C16.3801 3.1719 17.768 5.05679 17.768 7.21379H4.23183C4.23183 5.05679 5.61966 3.1719 7.67277 2.17672L7.39961 1.75174L7.13085 1.33288L6.52872 0.391196C6.45529 0.275015 6.48467 0.119087 6.59628 0.0426518C6.70789 -0.0337832 6.85622 -0.00320911 6.93112 0.112972L7.57878 1.12191L7.849 1.54537L8.1251 1.97646C8.99745 1.62333 9.9726 1.42613 10.9992 1.42613C12.0286 1.42613 13.0023 1.62333 13.8761 1.97646L14.1508 1.54537L14.4239 1.12191L15.0701 0.112972C15.1436 -0.00320911 15.2934 -0.0353119 15.405 0.0426518C15.5166 0.119087 15.546 0.275015 15.4725 0.391196L14.8689 1.33288L14.6002 1.75174ZM7.37464 4.44531C7.37464 4.86265 7.69773 5.20049 8.10013 5.20049C8.49959 5.20049 8.82415 4.86265 8.82415 4.44531C8.82415 4.02798 8.49959 3.69166 8.10013 3.69166C7.69773 3.69166 7.37464 4.02798 7.37464 4.44531ZM13.8996 5.20049C13.5002 5.20049 13.1756 4.86265 13.1756 4.44531C13.1756 4.02798 13.5002 3.69166 13.8996 3.69166C14.302 3.69166 14.6251 4.02798 14.6251 4.44531C14.6251 4.86265 14.302 5.20049 13.8996 5.20049ZM4.23183 8.21968H4.3361H17.768V19.2905C17.768 20.1695 17.0821 20.885 16.2377 20.885H15.1318C15.1685 21.018 15.1905 21.1571 15.1905 21.3038V24.4912C15.1905 25.3243 14.5414 26 13.7396 26C12.9392 26 12.2901 25.3243 12.2901 24.4912V21.3038C12.2901 21.1571 12.3091 21.018 12.3473 20.885H9.65391C9.69063 21.018 9.71266 21.1571 9.71266 21.3038V24.4912C9.71266 25.3243 9.0606 26 8.26021 26C7.45982 26 6.8107 25.3243 6.8107 24.4912V21.3038C6.8107 21.1571 6.83126 21.018 6.86797 20.885H5.76358C4.91913 20.885 4.23183 20.1695 4.23183 19.2905V8.21968ZM1.81597 8.21968C1.01412 8.21968 0.363525 8.89536 0.363525 9.7285V16.1873C0.363525 17.0204 1.01412 17.6961 1.81597 17.6961C2.61636 17.6961 3.26549 17.0204 3.26549 16.1873V9.7285C3.26549 8.89536 2.61636 8.21968 1.81597 8.21968ZM18.7343 9.7285C18.7343 8.89536 19.3849 8.21968 20.1853 8.21968C20.9857 8.21968 21.6363 8.89536 21.6363 9.7285V16.1873C21.6363 17.0204 20.9857 17.6961 20.1853 17.6961C19.3849 17.6961 18.7343 17.0204 18.7343 16.1873V9.7285Z" fill="white"/>
</svg>
