<svg width="25" height="26" viewBox="0 0 25 26" fill="none" xmlns="http://www.w3.org/2000/svg">
<path fill-rule="evenodd" clip-rule="evenodd" d="M2.0504 0.236909L1.79204 0C1.80537 0.00604786 1.8191 0.00954591 1.83297 0.0130767C1.84963 0.0173224 1.86649 0.0216155 1.88305 0.0304461C1.88961 0.033423 1.89657 0.0348792 1.90356 0.0363441C1.91221 0.0381565 1.92093 0.0399822 1.92905 0.0447176L12.829 6.16438L18.1508 9.16427L17.9834 9.31174L16.0526 11.1747L14.7148 12.461L2.09541 0.267355H2.08073L2.0504 0.236909ZM0.879961 0.117979L0.879613 0.118436L0.878982 0.117979H0.879961ZM0.879613 0.118436L0.940635 0.162696L1.07666 0.295898L14.0307 12.8159L14.0767 12.8444H14.0914L14.1981 12.9491L1.00131 25.6898L0.833965 25.8678H0.819286L0.803628 25.8811C0.756654 25.7897 0.727295 25.6756 0.727295 25.5424V12.9634V0.62129C0.727295 0.406538 0.788792 0.238289 0.879613 0.118436ZM18.7291 9.59337L18.8045 9.51916C18.9128 9.58006 19.1508 9.71434 19.4682 9.89339L19.4689 9.8938C20.8028 10.6464 23.537 12.189 23.9432 12.4011L24.0342 12.461C24.0426 12.4662 24.0512 12.4714 24.06 12.4767C24.0832 12.4906 24.1068 12.5048 24.1253 12.52C24.4883 12.8073 24.4551 13.2269 23.8982 13.5399L18.8045 16.4066L18.7291 16.3334H18.7135L18.5921 16.2002L15.2315 12.9491L15.3529 12.8444V12.8311L15.3842 12.8159L17.041 11.2194L18.5921 9.72657L18.7135 9.59337H18.7291ZM2.08073 25.6451L14.7148 13.4515L17.9834 16.614L18.1507 16.7615L12.829 19.7624C12.829 19.7624 2.25787 25.687 1.70103 26L2.06508 25.6603L2.08073 25.6451Z" fill="white"/>
</svg>
