<svg width="24" height="24" viewBox="0 0 24 24" fill="none" xmlns="http://www.w3.org/2000/svg">
<path fill-rule="evenodd" clip-rule="evenodd" d="M2.9641 5.75261H2.93075C1.26309 5.75261 0.181885 4.52524 0.181885 2.97097C0.181885 1.38492 1.29505 0.181763 2.99607 0.181763C4.6957 0.181763 5.74077 1.38189 5.77412 2.96643C5.77412 4.5207 4.6957 5.75261 2.9641 5.75261ZM0.778075 7.7609H5.385V23.8166H0.778075V7.7609ZM18.5943 23.8181H23.8182V14.889C23.8182 9.9175 21.2459 7.60653 17.9717 7.60653C15.3326 7.60653 13.6788 9.17896 13.3731 10.2807V7.7609H8.19779C8.2645 9.09875 8.19779 23.8181 8.19779 23.8181H13.3731V15.1297C13.3731 15.0718 13.3728 15.0139 13.3725 14.9562C13.3703 14.5319 13.3682 14.1213 13.4857 13.8175C13.8414 12.8505 14.6058 11.8501 15.9802 11.8501C17.7771 11.8501 18.5943 13.3333 18.5943 15.508V23.8181Z" fill="white"/>
</svg>
