<svg width="26" height="20" viewBox="0 0 26 20" fill="none" xmlns="http://www.w3.org/2000/svg">
<path fill-rule="evenodd" clip-rule="evenodd" d="M5.46979 8.2878C3.81577 7.22691 2.82438 6.58882 2.49547 6.37404C1.89586 5.99805 1.32992 5.48095 0.797986 4.82293C0.266055 4.1649 0 3.55368 0 2.98961C0 2.29136 0.200699 1.70932 0.602096 1.24366C1.00349 0.77816 1.57656 0.54541 2.3213 0.54541H23.6785C24.307 0.54541 24.8512 0.755742 25.3106 1.17657C25.7701 1.5974 26 2.10328 26 2.69422C26 3.40154 25.7632 4.07753 25.2889 4.72188C24.8149 5.36656 24.2251 5.91728 23.519 6.37371C19.8822 8.7106 17.6186 10.1655 16.7289 10.7384C16.6322 10.8012 16.4265 10.9375 16.1122 11.148C15.7978 11.3585 15.5368 11.5288 15.3288 11.6585C15.1208 11.7883 14.8693 11.9337 14.5744 12.0949C14.2795 12.2557 14.0012 12.3769 13.7401 12.4572C13.4789 12.5379 13.237 12.578 13.0146 12.578H13H12.9854C12.763 12.578 12.5211 12.5379 12.2599 12.4572C11.9988 12.3769 11.7207 12.2559 11.4256 12.0949C11.1305 11.9338 10.879 11.7883 10.671 11.6585C10.4632 11.5288 10.202 11.3585 9.88766 11.148C9.57334 10.9377 9.36784 10.8012 9.27114 10.7384C8.39088 10.1656 7.12382 9.34869 5.46979 8.2878ZM17.3238 12.4442C18.9679 11.3429 21.3766 9.79836 24.549 7.81092C25.1005 7.4618 25.584 7.07212 26 6.64256V17.3055C26 17.8966 25.7729 18.4022 25.3181 18.8232C24.8635 19.2442 24.3169 19.4545 23.6787 19.4545H2.32148C1.68305 19.4545 1.13652 19.2442 0.681877 18.8232C0.227233 18.4023 0 17.8966 0 17.3055V6.64256C0.425616 7.08119 0.914096 7.47086 1.46544 7.81092C4.96689 10.0133 7.37047 11.5578 8.67634 12.4442C9.22768 12.8201 9.67503 13.1136 10.0184 13.3237C10.3617 13.5342 10.8188 13.749 11.3894 13.9684C11.96 14.1878 12.4921 14.2974 12.9854 14.2974H13H13.0148C13.5081 14.2974 14.04 14.1878 14.6106 13.9684C15.1813 13.749 15.6383 13.5342 15.9816 13.3237C16.3252 13.1136 16.7725 12.8201 17.3238 12.4442Z" fill="white"/>
</svg>
