<svg width="136" height="45" viewBox="0 0 136 45" fill="none" xmlns="http://www.w3.org/2000/svg">
<path d="M124.104 0.00014625H10.9287C10.5161 0.00014625 10.1085 0.00014625 9.69709 0.00239625C9.35267 0.00464625 9.011 0.0111825 8.66327 0.0166837C7.90785 0.0255733 7.15421 0.092032 6.40889 0.215483C5.66461 0.34162 4.94366 0.579426 4.2704 0.920858C3.59796 1.26518 2.98354 1.71258 2.44941 2.24685C1.91249 2.77961 1.46492 3.39541 1.12392 4.07058C0.781974 4.74439 0.544869 5.46645 0.420792 6.21181C0.295536 6.95623 0.228134 7.70923 0.219192 8.46406C0.208752 8.80899 0.20765 9.15506 0.202148 9.50003V35.5036C0.20765 35.8529 0.208752 36.1913 0.219192 36.5407C0.228137 37.2955 0.295538 38.0485 0.420792 38.7928C0.544526 39.5386 0.781645 40.2611 1.12392 40.9352C1.46476 41.6082 1.9124 42.2215 2.44941 42.7513C2.98151 43.2879 3.59633 43.7356 4.2704 44.0773C4.94365 44.4197 5.66453 44.6589 6.40889 44.787C7.15433 44.9094 7.9079 44.9759 8.66327 44.9859C9.011 44.9935 9.35267 44.9979 9.69709 44.9979C10.1085 45.0001 10.5161 45.0001 10.9287 45.0001H124.104C124.508 45.0001 124.919 45.0001 125.323 44.9979C125.666 44.9979 126.018 44.9935 126.36 44.9859C127.114 44.9764 127.866 44.9099 128.61 44.787C129.357 44.658 130.081 44.4188 130.757 44.0773C131.431 43.7354 132.045 43.2877 132.576 42.7513C133.112 42.2194 133.561 41.6065 133.906 40.9352C134.245 40.2606 134.48 39.5382 134.602 38.7928C134.728 38.0484 134.798 37.2956 134.811 36.5407C134.815 36.1913 134.815 35.8529 134.815 35.5036C134.824 35.0949 134.824 34.6884 134.824 34.273V10.7283C134.824 10.3163 134.824 9.90762 134.815 9.50003C134.815 9.15506 134.815 8.80899 134.811 8.46402C134.798 7.70912 134.728 6.95629 134.602 6.21177C134.48 5.46684 134.245 4.74484 133.906 4.07053C133.211 2.71724 132.11 1.61567 130.757 0.920756C130.081 0.58016 129.357 0.342417 128.61 0.215381C127.867 0.0913869 127.114 0.024905 126.36 0.0165263C126.018 0.0110363 125.666 0.00444375 125.323 0.00225C124.919 0 124.508 0 124.104 0V0.00014625Z" fill="#090909"/>
<path d="M9.70287 44.0156C9.3601 44.0156 9.02562 44.0112 8.68554 44.0036C7.98105 43.9944 7.2782 43.9331 6.58276 43.8201C5.9343 43.7084 5.30611 43.5007 4.71893 43.2037C4.13712 42.9092 3.60647 42.5231 3.1473 42.06C2.68148 41.6025 2.29367 41.0718 1.99923 40.489C1.70154 39.9024 1.49552 39.2736 1.38835 38.6246C1.27262 37.9273 1.21 37.2221 1.20104 36.5153C1.19391 36.278 1.18457 35.488 1.18457 35.488V9.49988C1.18457 9.49988 1.19452 8.72205 1.2011 8.49353C1.20968 7.78779 1.27193 7.08373 1.38732 6.38745C1.49469 5.73666 1.70086 5.10609 1.99871 4.51758C2.29207 3.93519 2.67773 3.40409 3.14074 2.94489C3.60323 2.48132 4.13558 2.09318 4.71838 1.79461C5.30421 1.49861 5.93121 1.29232 6.57836 1.18268C7.27608 1.06857 7.98137 1.00687 8.68831 0.998111L9.70342 0.984375H125.318L126.345 0.998663C127.046 1.00699 127.745 1.06813 128.436 1.18158C129.09 1.2926 129.723 1.50032 130.316 1.79791C131.483 2.39961 132.433 3.35156 133.033 4.52033C133.326 5.10477 133.529 5.7302 133.635 6.37536C133.751 7.07737 133.817 7.78696 133.83 8.49848C133.833 8.81708 133.833 9.1593 133.833 9.49988C133.842 9.92176 133.842 10.3233 133.842 10.7281V34.2729C133.842 34.6816 133.842 35.0804 133.833 35.4825C133.833 35.8484 133.833 36.1835 133.829 36.5284C133.816 37.2272 133.752 37.9242 133.637 38.6136C133.532 39.2673 133.327 39.901 133.029 40.4924C132.733 41.0688 132.347 41.5949 131.887 42.0513C131.427 42.5168 130.896 42.9052 130.312 43.2016C129.722 43.5008 129.089 43.7093 128.436 43.8201C127.741 43.9337 127.038 43.995 126.333 44.0036C126.004 44.0112 125.659 44.0156 125.324 44.0156L124.104 44.0179L9.70287 44.0156Z" fill="white"/>
<path d="M28.3238 22.3758C28.3494 20.3911 29.3899 18.5579 31.0807 17.5184C30.0092 15.988 28.2788 15.0525 26.4115 14.9941C24.447 14.7879 22.5425 16.1697 21.5414 16.1697C20.5209 16.1697 18.9796 15.0146 17.3199 15.0487C15.1361 15.1193 13.1495 16.3308 12.0871 18.24C9.82458 22.1573 11.5122 27.9143 13.6795 31.0808C14.7639 32.6313 16.0312 34.3632 17.6895 34.3018C19.3122 34.2345 19.9182 33.2671 21.8769 33.2671C23.8175 33.2671 24.3861 34.3018 26.078 34.2628C27.8192 34.2345 28.9163 32.7054 29.9626 31.1402C30.7417 30.0354 31.3412 28.8144 31.739 27.5223C29.6709 26.6476 28.3262 24.6212 28.3238 22.3758Z" fill="#090909"/>
<path d="M25.1282 12.9118C26.0776 11.772 26.5453 10.3071 26.432 8.82812C24.9816 8.98047 23.6418 9.67369 22.6795 10.7697C21.7294 11.851 21.2481 13.2657 21.3415 14.7021C22.8114 14.7172 24.2071 14.0574 25.1282 12.9118Z" fill="#090909"/>
<path fill-rule="evenodd" clip-rule="evenodd" d="M42.4669 30.5326H47.792L49.0697 34.3086H51.3636L46.3198 20.3384H43.9764L38.9326 34.3086H41.1881L42.4669 30.5326ZM47.2394 28.7902H43.0184L45.1003 22.662H45.1586L47.2394 28.7902Z" fill="#090909"/>
<path fill-rule="evenodd" clip-rule="evenodd" d="M58.0059 34.4151C60.5624 34.4151 62.2565 32.3815 62.2565 29.2164C62.2565 26.06 60.5525 24.0165 57.9674 24.0165C56.6372 23.9736 55.3912 24.6655 54.7242 25.8172H54.6858V24.1231H52.6621V37.678H54.7528V32.6331H54.8012C55.4397 33.7921 56.6845 34.4842 58.0059 34.4151ZM57.4159 25.7985C59.0419 25.7985 60.1076 27.1542 60.1076 29.2164H60.1075C60.1075 31.2972 59.0419 32.643 57.4159 32.643C55.8185 32.643 54.7441 31.2686 54.7441 29.2164C54.7441 27.1828 55.8185 25.7985 57.4159 25.7985Z" fill="#090909"/>
<path fill-rule="evenodd" clip-rule="evenodd" d="M69.2168 34.4151C71.7734 34.4151 73.468 32.3815 73.468 29.2164C73.468 26.06 71.7635 24.0165 69.1783 24.0165C67.8482 23.9736 66.6021 24.6655 65.9352 25.8172H65.8967V24.1231H63.873V37.678H65.9637V32.6331H66.0121C66.6507 33.7921 67.8954 34.4842 69.2168 34.4151ZM68.6269 25.7985C70.2529 25.7985 71.3185 27.1542 71.3185 29.2164C71.3185 31.2972 70.2529 32.643 68.6269 32.643C67.0295 32.643 65.955 31.2686 65.955 29.2164C65.955 27.1828 67.0295 25.7985 68.6269 25.7985Z" fill="#090909"/>
<path d="M80.8755 30.4162C81.0305 31.8016 82.3763 32.7112 84.2154 32.7112C85.9776 32.7112 87.2454 31.8015 87.2454 30.5524C87.2454 29.468 86.4808 28.8188 84.6702 28.3738L82.8597 27.9376C80.2944 27.318 79.1035 26.1183 79.1035 24.1715C79.1035 21.7611 81.204 20.1055 84.1857 20.1055C87.1389 20.1055 89.1625 21.7611 89.2307 24.1715H87.1202C86.9938 22.7773 85.8413 21.9358 84.1571 21.9358C82.4729 21.9358 81.3205 22.7872 81.3205 24.0265C81.3205 25.0142 82.0566 25.5953 83.8572 26.0402L85.3964 26.4182C88.2627 27.096 89.4526 28.2474 89.4526 30.2909C89.4526 32.9045 87.3717 34.5415 84.0604 34.5415C80.9623 34.5415 78.8705 32.943 78.7354 30.4161L80.8755 30.4162Z" fill="#090909"/>
<path d="M93.9673 21.7129V24.1233H95.9042V25.7789H93.9673V31.394C93.9673 32.2664 94.3551 32.6729 95.2065 32.6729C95.4365 32.6688 95.666 32.6527 95.8943 32.6245V34.2702C95.5115 34.3418 95.1224 34.3742 94.733 34.3669C92.6709 34.3669 91.8667 33.5924 91.8667 31.617V25.7789H90.3857V24.1233H91.8667V21.7129H93.9673Z" fill="#090909"/>
<path fill-rule="evenodd" clip-rule="evenodd" d="M101.855 23.998C98.9119 23.998 97.0244 26.0118 97.0244 29.2166C97.0244 32.43 98.8932 34.4351 101.855 34.4351C104.818 34.4351 106.687 32.4301 106.687 29.2166C106.687 26.0118 104.808 23.998 101.855 23.998ZM101.855 25.7207C103.549 25.7207 104.557 27.0182 104.557 29.2165H104.557C104.557 31.4237 103.549 32.7113 101.855 32.7113C100.161 32.7113 99.1535 31.4237 99.1535 29.2165C99.1535 27.0281 100.161 25.7207 101.855 25.7207Z" fill="#090909"/>
<path d="M108.41 24.123H110.404V25.8566H110.453C110.731 24.7406 111.753 23.9726 112.903 24.0164C113.143 24.0156 113.384 24.0418 113.619 24.0944V26.05C113.315 25.9571 112.997 25.9144 112.679 25.9237C112.065 25.8987 111.47 26.1437 111.051 26.5942C110.632 27.0448 110.431 27.6558 110.501 28.267V34.3084H108.41L108.41 24.123Z" fill="#090909"/>
<path fill-rule="evenodd" clip-rule="evenodd" d="M118.872 34.4351C121.176 34.4351 122.977 33.1661 123.258 31.3171L121.273 31.3171C120.892 32.2622 119.935 32.8448 118.921 32.7498C118.16 32.7778 117.424 32.4776 116.9 31.9256C116.375 31.3736 116.114 30.623 116.181 29.8647V29.7384H123.375V29.0221C123.375 25.9338 121.603 23.998 118.785 23.998C115.919 23.998 114.07 26.0701 114.07 29.2649C114.07 32.4498 115.909 34.4351 118.872 34.4351ZM121.283 28.2772L116.191 28.2772C116.189 27.5896 116.462 26.9297 116.949 26.4442C117.436 25.9588 118.097 25.688 118.785 25.6921C119.467 25.6775 120.124 25.9481 120.598 26.4388C121.073 26.9295 121.321 27.5959 121.283 28.2772Z" fill="#090909"/>
<path fill-rule="evenodd" clip-rule="evenodd" d="M45.1255 10.7427C44.5136 10.0966 43.6443 9.75888 42.7567 9.82257H40.332V16.5353H42.7567C44.7562 16.5353 45.9153 15.3025 45.9153 13.158C46.0272 12.2752 45.7373 11.3888 45.1255 10.7427ZM42.6403 15.5859H41.3746V10.7712H42.6403C43.2712 10.7362 43.8847 10.9849 44.3131 11.4495C44.7415 11.914 44.9399 12.5457 44.854 13.1717C44.9466 13.8003 44.7511 14.4373 44.3216 14.9056C43.8922 15.374 43.2746 15.6239 42.6403 15.5859Z" fill="#090909"/>
<path fill-rule="evenodd" clip-rule="evenodd" d="M48.2169 11.7323C47.4419 12.2133 47.0065 13.092 47.0934 14C47.0049 14.909 47.4398 15.7894 48.2156 16.2714C48.9913 16.7534 49.9734 16.7534 50.7491 16.2714C51.5248 15.7894 51.9598 14.909 51.8713 14C51.9582 13.092 51.5228 12.2133 50.7477 11.7323C49.9727 11.2513 48.992 11.2513 48.2169 11.7323ZM49.484 12.2598C50.3497 12.2598 50.843 12.9019 50.843 14H50.843C50.843 15.1025 50.3497 15.7441 49.484 15.7441C48.615 15.7441 48.1261 15.1069 48.1261 14C48.1261 12.9019 48.615 12.2598 49.484 12.2598Z" fill="#090909"/>
<path d="M58.2222 16.535H57.1851L56.1381 12.8041H56.059L55.0164 16.535H53.9891L52.5928 11.4692H53.6068L54.5143 15.3347H54.589L55.6305 11.4692H56.5896L57.6311 15.3347H57.7102L58.6133 11.4692H59.613L58.2222 16.535Z" fill="#090909"/>
<path d="M60.7871 11.469H61.7495V12.2738H61.8242C62.084 11.6813 62.6911 11.3188 63.3359 11.3712C63.8352 11.3337 64.3245 11.5252 64.6656 11.8918C65.0067 12.2583 65.1626 12.7601 65.0894 13.2554V16.5348H64.0896V13.5064C64.0896 12.6923 63.7358 12.2875 62.9965 12.2875C62.6578 12.2717 62.3291 12.4046 62.0966 12.6514C61.8641 12.8981 61.751 13.2341 61.7869 13.5712V16.5348H60.7871L60.7871 11.469Z" fill="#090909"/>
<path d="M66.6827 9.4917H67.6825V16.535H66.6827V9.4917Z" fill="#090909"/>
<path fill-rule="evenodd" clip-rule="evenodd" d="M70.1956 11.7323C69.4205 12.2133 68.9851 13.092 69.0719 14.0001C68.9835 14.9091 69.4185 15.7895 70.1943 16.2715C70.9701 16.7535 71.9521 16.7535 72.7279 16.2715C73.5037 15.7895 73.9388 14.9091 73.8504 14.0001C73.9372 13.092 73.5017 12.2133 72.7266 11.7323C71.9515 11.2513 70.9707 11.2513 70.1956 11.7323ZM71.4625 12.2599C72.3282 12.2599 72.8215 12.902 72.8215 14.0001H72.8215C72.8215 15.1026 72.3282 15.7442 71.4625 15.7442C70.5935 15.7442 70.1046 15.107 70.1046 14.0001C70.1046 12.902 70.5935 12.2599 71.4625 12.2599Z" fill="#090909"/>
<path fill-rule="evenodd" clip-rule="evenodd" d="M76.7875 13.5903C75.5823 13.665 74.9033 14.1907 74.9033 15.1025C74.905 15.5349 75.0895 15.9464 75.4113 16.2352C75.733 16.5241 76.1619 16.6633 76.5919 16.6186C77.2054 16.647 77.7867 16.3431 78.1135 15.8232H78.1926V16.5352H79.155V13.0739C79.155 12.0038 78.4387 11.3716 77.1687 11.3716C76.0195 11.3716 75.2011 11.9297 75.0989 12.7998H76.0668C76.1777 12.4416 76.5645 12.2368 77.1226 12.2368C77.8059 12.2368 78.1597 12.5389 78.1597 13.0739V13.5112L76.7875 13.5903ZM78.1597 14.2461V14.6697C78.1378 14.9925 77.9858 15.2927 77.7386 15.5014C77.4913 15.7102 77.1699 15.8097 76.8479 15.7771C76.3041 15.7771 75.9086 15.5118 75.9086 15.0558C75.9086 14.6092 76.225 14.3719 76.9226 14.3252L78.1597 14.2461Z" fill="#090909"/>
<path fill-rule="evenodd" clip-rule="evenodd" d="M82.5715 11.3852C81.2916 11.3852 80.4688 12.3993 80.4688 14C80.4688 15.6045 81.2828 16.6186 82.5715 16.6185C83.2249 16.6426 83.8377 16.3022 84.1624 15.7347H84.2415V16.535H85.1995V9.4917H84.1997V12.274H84.125C83.8231 11.7017 83.2178 11.3554 82.5715 11.3852ZM82.855 15.721C82.008 15.721 81.5015 15.0744 81.5015 14H81.5015C81.5015 12.9343 82.0134 12.2833 82.855 12.2833C83.6922 12.2833 84.2184 12.9486 84.2184 14.0044C84.2184 15.0651 83.6976 15.721 82.855 15.721Z" fill="#090909"/>
<path fill-rule="evenodd" clip-rule="evenodd" d="M90.4591 11.7323C89.6841 12.2133 89.2487 13.092 89.3356 14C89.247 14.909 89.682 15.7894 90.4578 16.2714C91.2335 16.7534 92.2156 16.7534 92.9913 16.2714C93.767 15.7894 94.202 14.909 94.1135 14C94.2004 13.092 93.765 12.2133 92.9899 11.7323C92.2149 11.2513 91.2342 11.2513 90.4591 11.7323ZM91.7262 12.2598C92.5919 12.2598 93.0852 12.9019 93.0852 14C93.0852 15.1025 92.5919 15.7441 91.7262 15.7441C90.8572 15.7441 90.3683 15.1069 90.3683 14C90.3683 12.9019 90.8572 12.2598 91.7262 12.2598Z" fill="#090909"/>
<path d="M95.4551 11.469H96.4175V12.2738H96.4922C96.752 11.6813 97.3591 11.3188 98.0039 11.3712C98.5032 11.3337 98.9925 11.5252 99.3336 11.8918C99.6747 12.2583 99.8306 12.7601 99.7573 13.2554V16.5348H98.7576V13.5064C98.7576 12.6923 98.4038 12.2875 97.6644 12.2875C97.3258 12.2717 96.9971 12.4046 96.7646 12.6514C96.5321 12.8981 96.419 13.2341 96.4548 13.5712V16.5348H95.4551V11.469Z" fill="#090909"/>
<path d="M105.407 10.208V11.4923H106.504V12.3344H105.407V14.9393C105.407 15.4699 105.625 15.7023 106.123 15.7023C106.25 15.7019 106.378 15.6942 106.504 15.6792V16.512C106.325 16.5441 106.143 16.5612 105.96 16.563C104.849 16.563 104.406 16.1719 104.406 15.1952V12.3344H103.602V11.4923H104.406V10.208H105.407Z" fill="#090909"/>
<path d="M107.87 9.4917H108.861V12.2833H108.94C109.212 11.6856 109.83 11.3227 110.485 11.3759C110.981 11.3488 111.464 11.5446 111.801 11.9098C112.139 12.275 112.296 12.7716 112.229 13.2644V16.535H111.229V13.511C111.229 12.7019 110.852 12.2921 110.145 12.2921C109.798 12.2636 109.455 12.39 109.209 12.6376C108.963 12.8853 108.839 13.2288 108.87 13.5764V16.535H107.87L107.87 9.4917Z" fill="#090909"/>
<path fill-rule="evenodd" clip-rule="evenodd" d="M115.864 16.633C116.854 16.7404 117.778 16.123 118.059 15.1674L117.096 15.1674C116.856 15.5976 116.38 15.8403 115.891 15.7815C115.514 15.7857 115.152 15.6306 114.896 15.3543C114.639 15.078 114.51 14.7062 114.542 14.3303V14.2743H118.119V13.9254C118.119 12.3347 117.269 11.3717 115.859 11.3717C115.182 11.3659 114.536 11.6542 114.088 12.162C113.639 12.6698 113.434 13.347 113.524 14.0183C113.431 14.6877 113.638 15.3638 114.088 15.8673C114.539 16.3709 115.188 16.6508 115.864 16.633ZM117.101 13.5349H114.542C114.537 13.1856 114.674 12.8492 114.921 12.6021C115.168 12.355 115.504 12.2182 115.854 12.2226C116.198 12.2147 116.53 12.3527 116.768 12.6026C117.005 12.8525 117.126 13.1911 117.101 13.5349Z" fill="#090909"/>
</svg>
