<svg width="185" height="48" viewBox="0 0 185 48" fill="none" xmlns="http://www.w3.org/2000/svg">
<path fill-rule="evenodd" clip-rule="evenodd" d="M3.60348 8.34782C2.75601 8.34782 2.00054 8.88195 1.71795 9.68092L0.485564 13.1652C0.248606 13.8352 0.745548 14.538 1.45616 14.538C2.91435 14.538 4.22879 15.4169 4.78602 16.7644L16.7602 45.7208C17.0695 46.4687 17.7991 46.9565 18.6084 46.9565H27.4644C28.2744 46.9565 29.0044 46.468 29.3133 45.7193L30.6406 42.5022C30.9569 41.7356 30.3932 40.8933 29.5639 40.8933C27.9102 40.8933 26.4203 39.8942 25.7925 38.3643L13.9853 9.58861C13.6774 8.83799 12.9464 8.34782 12.135 8.34782H3.60348Z" fill="white"/>
<path fill-rule="evenodd" clip-rule="evenodd" d="M174.839 17.7431C173.367 17.738 172.007 18.5307 171.286 19.8144C171.251 19.8777 171.246 19.9536 171.273 20.0209L177.206 34.693C177.569 35.5911 178.87 35.4997 179.104 34.5596L181.21 26.0989L183.511 25.0225C184.455 24.5807 184.902 23.4875 184.537 22.5109L182.999 18.3953C182.858 18.019 182.5 17.7691 182.098 17.7677L174.839 17.7431ZM154.287 18.2116C152.864 18.2063 151.891 19.6457 152.426 20.9637L162.892 46.7521C163.198 47.5065 163.931 48 164.745 48H173.592C174.406 48 175.14 47.5059 175.445 46.7509L176.793 43.4237C177.104 42.6572 176.54 41.8202 175.713 41.8202C174.052 41.8202 172.557 40.8133 171.932 39.2743L163.903 19.4885C163.598 18.7366 162.869 18.2436 162.057 18.2406L154.287 18.2116ZM134.527 18.2455C133.676 18.2455 132.917 18.7849 132.638 19.5894L131.389 23.1859C131.156 23.8556 131.654 24.5548 132.363 24.5548C133.826 24.5548 135.145 25.439 135.7 26.7931L143.891 46.7591C144.199 47.5098 144.93 48 145.742 48H153.203C154.557 48 155.52 46.6817 155.108 45.3914L153.967 41.8202L144.907 19.4935C144.601 18.7391 143.868 18.2455 143.054 18.2455H134.527Z" fill="white"/>
<circle cx="33.9131" cy="13.0435" r="10.9565" fill="#F75300"/>
<path fill-rule="evenodd" clip-rule="evenodd" d="M53.4072 18.7826C54.455 18.7826 55.3044 19.6002 55.3044 20.6087V46.1739C55.3044 47.1824 54.455 48 53.4072 48H46.7669C45.719 48 44.8696 47.1824 44.8696 46.1739L44.8699 24.9446C44.8699 24.2966 45.1852 23.6909 45.6807 23.2732C46.409 22.6594 47.4552 21.6702 48.0677 20.6087C48.7307 19.4595 49.1382 19.0323 49.3398 18.8744C49.4344 18.8003 49.5547 18.7829 49.6749 18.7829L53.4072 18.7826Z" fill="white"/>
<path fill-rule="evenodd" clip-rule="evenodd" d="M80.4082 1.0776C80.7523 0.415458 81.4365 0 82.1827 0H89.3105C90.2649 0 91.0385 0.773636 91.0385 1.72796V38.0492C91.0385 39.5934 91.6981 41.0642 92.8513 42.0912C92.8628 42.1015 92.8694 42.1162 92.8694 42.1316V46.6777C92.8694 47.408 92.2774 48 91.5471 48C85.7046 48 80.9683 43.2637 80.9683 37.4212V9.97883C80.9683 8.11708 80.0336 6.37971 78.48 5.35378C78.3554 5.27148 78.3131 5.10834 78.3819 4.97582L80.4082 1.0776Z" fill="white"/>
<path fill-rule="evenodd" clip-rule="evenodd" d="M61.6254 1.0776C61.9696 0.415458 62.6538 0 63.4 0H70.5278C71.4821 0 72.2558 0.773636 72.2558 1.72796V38.0492C72.2558 39.5934 72.9154 41.0642 74.0686 42.0912C74.0801 42.1015 74.0867 42.1162 74.0867 42.1316V46.6777C74.0867 47.408 73.4947 48 72.7644 48C66.9219 48 62.1856 43.2637 62.1856 37.4212V9.97883C62.1856 8.11708 61.2509 6.37971 59.6973 5.35378C59.5727 5.27148 59.5303 5.10834 59.5992 4.97582L61.6254 1.0776Z" fill="white"/>
<path fill-rule="evenodd" clip-rule="evenodd" d="M113.739 48C121.807 48 128.348 41.4595 128.348 33.3913C128.348 25.3231 121.807 18.7826 113.739 18.7826C105.671 18.7826 99.1304 25.3231 99.1304 33.3913C99.1304 41.4595 105.671 48 113.739 48ZM113.739 26.087C112.226 26.087 111 27.3133 111 28.8261V37.0435C111 38.5563 112.226 39.7826 113.739 39.7826C115.252 39.7826 116.478 38.5563 116.478 37.0435V28.8261C116.478 27.3133 115.252 26.087 113.739 26.087Z" fill="white"/>
</svg>
