<svg width="123" height="106" viewBox="0 0 123 106" fill="none" xmlns="http://www.w3.org/2000/svg">
<path d="M82.308 3.41997L70.6189 73.4608C70.4666 74.3424 69.9796 75.0264 69.1577 75.5128C68.7315 75.756 68.2597 75.8776 67.7422 75.8776C67.4074 75.8776 67.0421 75.8016 66.6464 75.6496L45.962 67.2137L34.9121 76.9512C34.3642 77.6504 33.6184 78 32.6747 78C32.279 78 31.9441 77.9392 31.6702 77.8176C31.0918 77.6048 30.6276 77.2476 30.2775 76.746C29.9274 76.2444 29.7524 75.6896 29.7524 75.0816V62.8818L52.9266 33.6226L20.3919 56.7714L2.35592 49.3843C1.22961 48.9587 0.62081 48.1227 0.529488 46.8763C0.468606 45.6603 0.95565 44.7635 1.99063 44.1859L77.9702 0.410396C78.4268 0.136797 78.9139 0 79.4314 0C80.0402 0 80.5881 0.167197 81.0752 0.501595C82.0797 1.23119 82.4907 2.20397 82.308 3.41997Z" fill="#CECECE"/>
<circle cx="93.4238" cy="76.6" r="23.8" fill="#CECECE" stroke="white" stroke-width="9.6"/>
<path d="M100.693 69.9514L102.401 71.6379L104.087 69.9303L102.38 68.2438L100.693 69.9514ZM94.1307 76.5956L92.4232 74.9091L90.7367 76.6167L92.4442 78.3032L94.1307 76.5956ZM99.9816 69.2487L101.668 67.5411L99.9605 65.8546L98.274 67.5622L99.9816 69.2487ZM93.4192 75.8929L91.7327 77.6005L93.4403 79.287L95.1268 77.5794L93.4192 75.8929ZM86.775 69.3306L88.4615 67.623L86.7539 65.9365L85.0674 67.6441L86.775 69.3306ZM86.0723 70.042L84.3647 68.3555L82.6782 70.0631L84.3858 71.7496L86.0723 70.042ZM92.7165 76.6044L94.4241 78.2909L96.1106 76.5833L94.403 74.8968L92.7165 76.6044ZM86.1542 83.2487L84.4466 81.5622L82.7601 83.2697L84.4677 84.9562L86.1542 83.2487ZM86.8657 83.9514L85.1792 85.6589L86.8867 87.3454L88.5732 85.6379L86.8657 83.9514ZM93.428 77.3071L95.1145 75.5996L93.407 73.9131L91.7205 75.6206L93.428 77.3071ZM100.072 83.8695L98.3858 85.577L100.093 87.2635L101.78 85.556L100.072 83.8695ZM100.775 83.158L102.483 84.8445L104.169 83.1369L102.461 81.4504L100.775 83.158ZM98.9855 68.2649L92.4232 74.9091L95.8383 78.2821L102.401 71.6379L98.9855 68.2649ZM98.2951 70.9562L99.0066 71.6589L102.38 68.2438L101.668 67.5411L98.2951 70.9562ZM95.1268 77.5794L101.689 70.9352L98.274 67.5622L91.7117 74.2064L95.1268 77.5794ZM85.0885 71.0381L91.7327 77.6005L95.1057 74.1854L88.4615 67.623L85.0885 71.0381ZM87.7798 71.7285L88.4825 71.0171L85.0674 67.6441L84.3647 68.3555L87.7798 71.7285ZM94.403 74.8968L87.7588 68.3345L84.3858 71.7496L91.03 78.3119L94.403 74.8968ZM87.8617 84.9352L94.4241 78.2909L91.009 74.9179L84.4466 81.5622L87.8617 84.9352ZM88.5522 82.2438L87.8407 81.5411L84.4677 84.9562L85.1792 85.6589L88.5522 82.2438ZM91.7205 75.6206L85.1581 82.2649L88.5732 85.6379L95.1356 78.9936L91.7205 75.6206ZM101.759 82.1619L95.1145 75.5996L91.7415 79.0147L98.3858 85.577L101.759 82.1619ZM99.0674 81.4715L98.3647 82.183L101.78 85.556L102.483 84.8445L99.0674 81.4715ZM92.4442 78.3032L99.0885 84.8655L102.461 81.4504L95.8172 74.8881L92.4442 78.3032Z" fill="white"/>
</svg>
