<svg width="22" height="21" viewBox="0 0 22 21" fill="none" xmlns="http://www.w3.org/2000/svg">
<path d="M21.9887 0.920741L18.8459 19.7775C18.8049 20.0149 18.674 20.199 18.453 20.33C18.3384 20.3954 18.2116 20.4282 18.0724 20.4282C17.9824 20.4282 17.8842 20.4077 17.7778 20.3668L12.2165 18.0956L9.24561 20.7172C9.09829 20.9055 8.89777 20.9996 8.64406 20.9996C8.53766 20.9996 8.44763 20.9832 8.37397 20.9505C8.21847 20.8932 8.09366 20.797 7.99954 20.662C7.90542 20.5269 7.85836 20.3776 7.85836 20.2139V16.9294L14.0891 9.05206L5.34166 15.2843L0.492426 13.2955C0.189603 13.1809 0.0259173 12.9559 0.00136409 12.6203C-0.0150047 12.2929 0.115944 12.0515 0.394214 11.896L20.8224 0.110489C20.9452 0.0368293 21.0761 0 21.2152 0C21.3789 0 21.5262 0.0450136 21.6572 0.135042C21.9273 0.331468 22.0378 0.593365 21.9887 0.920741Z" fill="white"/>
</svg>
